<svg width="14" height="14" viewBox="0 0 14 14" fill="none" xmlns="http://www.w3.org/2000/svg">
<path d="M12.75 12.75L11.55 11.55M6.45 12.15C7.19853 12.15 7.93974 12.0026 8.6313 11.7161C9.32285 11.4297 9.95121 11.0098 10.4805 10.4805C11.0098 9.95121 11.4297 9.32285 11.7161 8.6313C12.0026 7.93974 12.15 7.19853 12.15 6.45C12.15 5.70147 12.0026 4.96026 11.7161 4.2687C11.4297 3.57715 11.0098 2.94879 10.4805 2.41949C9.95121 1.8902 9.32285 1.47034 8.6313 1.18389C7.93974 0.897435 7.19853 0.75 6.45 0.75C4.93827 0.75 3.48845 1.35053 2.41949 2.41949C1.35053 3.48845 0.75 4.93827 0.75 6.45C0.75 7.96173 1.35053 9.41155 2.41949 10.4805C3.48845 11.5495 4.93827 12.15 6.45 12.15V12.15Z" stroke="#A09F9F" stroke-width="1.5" stroke-linecap="round" stroke-linejoin="round"/>
</svg>
